<svg width="720" height="180" viewBox="0 0 720 180" fill="none" xmlns="http://www.w3.org/2000/svg">
  <defs>
    <linearGradient id="pgh-paddle" x1="28" y1="20" x2="188" y2="170" gradientUnits="userSpaceOnUse">
      <stop stop-color="#0C6A36"/>
      <stop offset="1" stop-color="#064A25"/>
    </linearGradient>
    <linearGradient id="pgh-go" x1="250" y1="114" x2="480" y2="114" gradientUnits="userSpaceOnUse">
      <stop stop-color="#8ED414"/>
      <stop offset="1" stop-color="#68B90E"/>
    </linearGradient>
    <linearGradient id="pgh-hub" x1="486" y1="120" x2="672" y2="120" gradientUnits="userSpaceOnUse">
      <stop stop-color="#0A6A35"/>
      <stop offset="1" stop-color="#08532B"/>
    </linearGradient>
    <linearGradient id="pgh-ball" x1="147" y1="18" x2="205" y2="82" gradientUnits="userSpaceOnUse">
      <stop stop-color="#FFE24B"/>
      <stop offset="1" stop-color="#FFC907"/>
    </linearGradient>
  </defs>

  <g>
    <path d="M66 120C44 93 43 54 66 31C89 8 128 6 164 24L185 35L157 66L136 57C116 49 95 52 83 66C68 82 71 106 89 127L66 120Z" fill="url(#pgh-paddle)"/>
    <rect x="34" y="116" width="72" height="24" rx="12" transform="rotate(28 34 116)" fill="#0B5D30"/>
    <path d="M167 34C232 19 302 18 382 31C329 28 264 33 205 49L167 34Z" fill="#FFD31A"/>
    <path d="M165 51C227 38 289 37 351 48C295 48 243 53 190 68L165 51Z" fill="#FFD31A"/>
    <circle cx="170" cy="52" r="34" fill="url(#pgh-ball)" stroke="#0A6A35" stroke-width="5"/>
    <circle cx="153" cy="40" r="5" fill="#0A6A35"/>
    <circle cx="186" cy="62" r="6" fill="#0A6A35"/>
    <circle cx="147" cy="66" r="5" fill="#0A6A35"/>
    <circle cx="182" cy="33" r="4" fill="#0A6A35"/>
  </g>

  <path d="M240 92L258 39H304C331 39 346 53 340 74C334 93 317 102 291 102H267L258 133H212L240 92ZM277 73H293C302 73 307 69 309 63C311 56 307 53 299 53H283L277 73Z" fill="#065C2F"/>
  <path d="M348 53H389L364 133H323L348 53Z" fill="#065C2F"/>
  <path d="M398 94C398 67 420 53 454 53H507L501 74H459C444 74 436 81 434 93C431 106 437 112 451 112H475L468 133H432C404 133 393 119 398 94Z" fill="#065C2F"/>
  <path d="M521 53H563L549 92L598 53H652L594 98L625 133H577L551 103L545 133H503L521 53Z" fill="#065C2F"/>
  <path d="M201 122H293L287 144H195L201 122Z" fill="#8ED414"/>
  <path d="M308 95H413C452 95 467 110 462 129C457 149 438 162 399 162H291L308 95ZM344 122L338 147H393C405 147 413 141 415 131C417 126 412 122 402 122H344Z" fill="url(#pgh-go)"/>
  <path d="M486 101H672C679 101 684 106 684 113V148C684 156 679 162 672 162H469L486 101Z" fill="url(#pgh-hub)"/>
  <path d="M532 115H560L555 133H582L587 115H615L602 162H574L579 144H552L547 162H519L532 115Z" fill="white"/>
  <path d="M442 66C557 62 636 78 694 110C620 85 540 79 448 84L442 66Z" fill="#76C61A"/>
</svg>
